<?xml version="1.0" ?><svg xmlns="http://www.w3.org/2000/svg" xmlns:xlink="http://www.w3.org/1999/xlink" version="1.0" viewBox="0 0 48 48" enable-background="new 0 0 48 48" xml:space="preserve" fill='black'><g id="Layer_1"/><g id="_x39__x5F_Pen"><path d="M10.444,38.728c0.081,0,0.162-0.01,0.243-0.03l5.657-1.414c0.023-0.006,0.039-0.022,0.06-0.029   c0.065-0.021,0.122-0.053,0.182-0.087c0.059-0.033,0.115-0.066,0.165-0.109c0.018-0.015,0.04-0.021,0.057-0.038   c0.029-0.029,0.04-0.066,0.065-0.098c0.043-0.054,0.082-0.108,0.113-0.17c0.029-0.058,0.047-0.116,0.064-0.177   c0.017-0.061,0.031-0.12,0.036-0.185c0.005-0.069,0-0.135-0.009-0.204c-0.005-0.039,0.005-0.077-0.005-0.116   c-0.006-0.023-0.022-0.04-0.029-0.062c-0.02-0.063-0.052-0.12-0.085-0.179c-0.034-0.06-0.067-0.117-0.111-0.168   c-0.015-0.017-0.021-0.039-0.037-0.056l-4.243-4.242c-0.017-0.017-0.039-0.023-0.057-0.038c-0.05-0.044-0.106-0.076-0.165-0.109   c-0.06-0.034-0.118-0.066-0.182-0.087c-0.022-0.007-0.038-0.023-0.06-0.029c-0.038-0.009-0.075,0-0.113-0.005   c-0.071-0.009-0.139-0.015-0.21-0.009c-0.061,0.005-0.118,0.018-0.176,0.034c-0.064,0.017-0.125,0.037-0.185,0.067   c-0.06,0.03-0.111,0.067-0.163,0.108c-0.032,0.025-0.071,0.037-0.101,0.067c-0.017,0.017-0.023,0.04-0.039,0.059   c-0.043,0.049-0.075,0.104-0.108,0.162c-0.034,0.06-0.066,0.118-0.087,0.182c-0.007,0.022-0.023,0.038-0.029,0.061l-1.414,5.656   c-0.085,0.341,0.015,0.701,0.263,0.949C9.927,38.624,10.182,38.728,10.444,38.728z M12.4,34.027l1.745,1.745l-2.326,0.582   L12.4,34.027z M18.222,34.192c0.188,0.188,0.442,0.293,0.707,0.293s0.52-0.105,0.707-0.293l13.936-13.935l4.656-4.657l0.708,0.707   c0.39,0.39,0.39,1.024,0,1.414l-6.107,6.107c-0.391,0.391-0.391,1.023,0,1.415c0.195,0.195,0.451,0.292,0.707,0.292   s0.512-0.097,0.707-0.292l6.107-6.107c1.169-1.169,1.169-3.073,0-4.243l-1.036-1.035c0.149-0.653,0.075-1.341-0.217-1.956   l1.544-1.544c0.391-0.391,0.391-1.023,0-1.414l-1.414-1.415c-0.188-0.188-0.441-0.293-0.707-0.293s-0.52,0.105-0.707,0.293   l-1.544,1.545c-1.114-0.529-2.484-0.344-3.405,0.577l-4.95,4.95L13.979,28.535c-0.391,0.391-0.391,1.023,0,1.414L18.222,34.192z    M34.278,11.065c0.391-0.39,1.023-0.39,1.414,0l1.414,1.414c0.39,0.39,0.39,1.024,0,1.415l-4.949,4.95l0,0l-2.829-2.829   L34.278,11.065z M26.5,18.843l2.829,2.829l-10.4,10.4l-2.828-2.829L26.5,18.843z M42,39v0.5c0,1.93-1.57,3.5-3.5,3.5   S35,41.43,35,39.5c0-0.827-0.673-1.5-1.5-1.5S32,38.673,32,39.5c0,1.93-1.57,3.5-3.5,3.5S25,41.43,25,39.5   c0-0.827-0.673-1.5-1.5-1.5S22,38.673,22,39.5c0,1.93-1.57,3.5-3.5,3.5H9c-0.552,0-1-0.447-1-1s0.448-1,1-1h9.5   c0.827,0,1.5-0.673,1.5-1.5c0-1.93,1.57-3.5,3.5-3.5s3.5,1.57,3.5,3.5c0,0.827,0.673,1.5,1.5,1.5s1.5-0.673,1.5-1.5   c0-1.93,1.57-3.5,3.5-3.5s3.5,1.57,3.5,3.5c0,0.827,0.673,1.5,1.5,1.5s1.5-0.673,1.5-1.5V39c0-0.553,0.447-1,1-1S42,38.447,42,39z"/></g></svg>